<?xml version="1.0" standalone="no"?>
<!DOCTYPE svg PUBLIC "-//W3C//DTD SVG 20010904//EN"
 "http://www.w3.org/TR/2001/REC-SVG-20010904/DTD/svg10.dtd">
<svg version="1.0" xmlns="http://www.w3.org/2000/svg"
 width="512.000000pt" height="512.000000pt" viewBox="0 0 512.000000 512.000000"
 preserveAspectRatio="xMidYMid meet">
<metadata>
Created by potrace 1.14, written by Peter Selinger 2001-2017
</metadata>
<g transform="translate(0.000000,512.000000) scale(0.100000,-0.100000)"
fill="#000000" stroke="none">
<path d="M2320 5109 c-836 -82 -1572 -558 -1988 -1286 -178 -312 -281 -638
-323 -1018 -14 -134 -6 -456 16 -603 82 -559 333 -1061 728 -1454 778 -774
1949 -968 2932 -484 283 140 494 294 715 522 205 213 327 388 460 659 121 245
192 476 237 765 21 139 24 504 4 650 -79 589 -311 1073 -711 1484 -218 223
-425 374 -705 512 -257 127 -524 208 -805 244 -117 15 -444 21 -560 9z m-1510
-2314 l0 -1056 -117 3 -118 3 -3 1053 -2 1052 120 0 120 0 0 -1055z m750 850
l0 -205 -120 0 -120 0 0 205 0 205 120 0 120 0 0 -205z m748 -847 l-3 -1053
-117 -3 -118 -3 0 1056 0 1055 120 0 120 0 -2 -1052z m742 847 l0 -205 -120 0
-120 0 0 205 0 205 120 0 120 0 0 -205z m-1490 -1200 l0 -705 -120 0 -120 0 0
705 0 705 120 0 120 0 0 -705z m1490 -240 l0 -945 -245 0 -245 0 0 120 0 120
125 0 125 0 0 825 0 825 120 0 120 0 0 -945z m1490 530 l0 -415 -365 0 -365 0
0 -175 0 -175 370 0 370 0 0 -115 0 -115 -495 0 -495 0 0 705 0 705 490 0 490
0 0 -415z"/>
<path d="M3810 2735 l0 -185 255 0 255 0 0 185 0 185 -255 0 -255 0 0 -185z"/>
</g>
</svg>
